<!DOCTYPE svg PUBLIC "-//W3C//DTD SVG 20010904//EN" "http://www.w3.org/TR/2001/REC-SVG-20010904/DTD/svg10.dtd">
<svg version="1.0" xmlns="http://www.w3.org/2000/svg" width="95px" height="95px" viewBox="0 0 950 950" preserveAspectRatio="xMidYMid meet">
<g id="layer1" fill="#0069b8" stroke="none">
 <path d="M0 930 c0 -16 7 -20 30 -20 l30 0 0 -75 c0 -43 -4 -75 -10 -75 -24 0 -50 -41 -50 -80 0 -53 27 -80 78 -80 50 0 82 32 82 83 0 36 -27 77 -50 77 -6 0 -10 32 -10 75 l0 75 170 0 170 0 0 -23 c0 -14 -12 -32 -30 -45 -25 -19 -30 -29 -30 -67 0 -35 5 -47 26 -64 59 -47 134 -8 134 68 0 33 -5 44 -30 63 -18 13 -30 31 -30 45 l0 23 195 0 195 0 0 -36 c0 -26 -7 -43 -25 -60 -66 -61 9 -160 83 -108 30 21 31 88 2 106 -15 10 -20 24 -20 55 0 36 3 43 20 43 13 0 20 7 20 20 0 20 -7 20 -475 20 -468 0 -475 0 -475 -20z m485 -123 c21 -16 15 -61 -11 -71 -42 -16 -76 50 -36 73 22 14 25 13 47 -2z m425 -47 c0 -24 -25 -33 -40 -14 -10 11 -10 17 0 28 15 19 40 10 40 -14z m-800 -55 c26 -32 -13 -81 -47 -59 -35 22 -23 74 17 74 10 0 23 -7 30 -15z"/>
 <path d="M127 883 c-4 -3 -7 -26 -7 -50 0 -36 3 -43 20 -43 17 0 20 7 20 50 0 35 -4 50 -13 50 -8 0 -17 -3 -20 -7z"/>
 <path d="M190 840 c0 -44 3 -51 18 -48 13 3 17 13 17 48 0 35 -4 45 -17 48 -15 3 -18 -4 -18 -48z"/>
 <path d="M250 685 l0 -205 -75 0 -75 0 0 45 c0 38 -3 45 -20 45 -18 0 -20 -7 -20 -65 l0 -65 115 0 115 0 0 225 c0 218 -1 225 -20 225 -19 0 -20 -7 -20 -205z"/>
 <path d="M317 883 c-4 -3 -7 -26 -7 -50 0 -36 3 -43 20 -43 17 0 20 7 20 50 0 35 -4 50 -13 50 -8 0 -17 -3 -20 -7z"/>
 <path d="M570 840 c0 -44 3 -51 18 -48 13 3 17 13 17 48 0 35 -4 45 -17 48 -15 3 -18 -4 -18 -48z"/>
 <path d="M630 840 c0 -43 3 -50 20 -50 17 0 20 7 20 50 0 43 -3 50 -20 50 -17 0 -20 -7 -20 -50z"/>
 <path d="M697 883 c-4 -3 -7 -118 -7 -254 l0 -248 -37 -10 c-95 -25 -161 -41 -167 -41 -3 0 -6 77 -6 170 0 163 -1 170 -20 170 -19 0 -20 -7 -20 -195 0 -149 3 -195 13 -195 6 0 71 15 142 33 l130 33 3 272 c2 223 0 272 -11 272 -8 0 -17 -3 -20 -7z"/>
 <path d="M760 840 c0 -44 3 -51 18 -48 13 3 17 13 17 48 0 35 -4 45 -17 48 -15 3 -18 -4 -18 -48z"/>
 <path d="M190 724 c0 -28 3 -35 18 -32 11 2 18 14 20 36 3 27 0 32 -17 32 -17 0 -21 -6 -21 -36z"/>
 <path d="M312 728 c2 -22 9 -34 21 -36 14 -3 17 4 17 32 0 30 -4 36 -21 36 -17 0 -20 -5 -17 -32z"/>
 <path d="M570 724 c0 -28 3 -35 18 -32 11 2 18 14 20 36 3 27 0 32 -17 32 -17 0 -21 -6 -21 -36z"/>
 <path d="M632 728 c2 -21 8 -33 18 -33 10 0 16 12 18 33 3 27 0 32 -18 32 -18 0 -21 -5 -18 -32z"/>
 <path d="M760 724 c0 -28 3 -35 18 -32 11 2 18 14 20 36 3 27 0 32 -17 32 -17 0 -21 -6 -21 -36z"/>
 <path d="M190 635 c0 -29 3 -36 18 -33 24 5 24 61 0 66 -15 3 -18 -4 -18 -33z"/>
 <path d="M317 663 c-4 -3 -7 -19 -7 -35 0 -21 5 -28 20 -28 16 0 20 7 20 35 0 33 -16 46 -33 28z"/>
 <path d="M380 635 c0 -29 3 -36 18 -33 11 2 17 13 17 33 0 20 -6 31 -17 33 -15 3 -18 -4 -18 -33z"/>
 <path d="M507 663 c-4 -3 -7 -19 -7 -35 0 -21 5 -28 20 -28 16 0 20 7 20 35 0 33 -16 46 -33 28z"/>
 <path d="M570 635 c0 -29 3 -36 18 -33 11 2 17 13 17 33 0 20 -6 31 -17 33 -15 3 -18 -4 -18 -33z"/>
 <path d="M630 635 c0 -28 4 -35 20 -35 16 0 20 7 20 35 0 28 -4 35 -20 35 -16 0 -20 -7 -20 -35z"/>
 <path d="M760 635 c0 -29 3 -36 18 -33 11 2 17 13 17 33 0 20 -6 31 -17 33 -15 3 -18 -4 -18 -33z"/>
 <path d="M820 635 c0 -28 4 -35 20 -35 16 0 20 7 20 35 0 28 -4 35 -20 35 -16 0 -20 -7 -20 -35z"/>
 <path d="M885 658 c-3 -7 -6 -49 -7 -92 l-3 -79 -57 -20 -58 -21 0 -139 0 -139 -22 6 c-13 3 -46 11 -75 17 -52 12 -52 12 -55 53 -2 29 -8 42 -20 44 -16 3 -18 -5 -18 -56 l0 -60 95 -23 c78 -19 95 -26 95 -42 0 -12 6 -17 18 -15 15 3 17 20 20 163 l2 160 58 21 57 20 3 107 c2 92 0 107 -13 107 -9 0 -18 -6 -20 -12z"/>
 <path d="M122 538 c2 -22 9 -34 21 -36 14 -3 17 4 17 32 0 30 -4 36 -21 36 -17 0 -20 -5 -17 -32z"/>
 <path d="M190 534 c0 -28 3 -35 18 -32 11 2 18 14 20 36 3 27 0 32 -17 32 -17 0 -21 -6 -21 -36z"/>
 <path d="M312 538 c2 -22 9 -34 21 -36 14 -3 17 4 17 32 0 30 -4 36 -21 36 -17 0 -20 -5 -17 -32z"/>
 <path d="M380 534 c0 -28 3 -35 18 -32 11 2 18 14 20 36 3 27 0 32 -17 32 -17 0 -21 -6 -21 -36z"/>
 <path d="M502 538 c2 -22 9 -34 21 -36 14 -3 17 4 17 32 0 30 -4 36 -21 36 -17 0 -20 -5 -17 -32z"/>
 <path d="M570 534 c0 -28 3 -35 18 -32 11 2 18 14 20 36 3 27 0 32 -17 32 -17 0 -21 -6 -21 -36z"/>
 <path d="M632 538 c4 -45 32 -45 36 0 3 27 0 32 -18 32 -18 0 -21 -5 -18 -32z"/>
 <path d="M760 534 c0 -28 3 -35 18 -32 11 2 18 14 20 36 3 27 0 32 -17 32 -17 0 -21 -6 -21 -36z"/>
 <path d="M822 538 c2 -21 8 -33 18 -33 10 0 16 12 18 33 3 27 0 32 -18 32 -18 0 -21 -5 -18 -32z"/>
 <path d="M317 473 c-4 -3 -7 -19 -7 -35 0 -21 5 -28 20 -28 16 0 20 7 20 35 0 33 -16 46 -33 28z"/>
 <path d="M380 445 c0 -29 3 -36 18 -33 11 2 17 13 17 33 0 20 -6 31 -17 33 -15 3 -18 -4 -18 -33z"/>
 <path d="M507 473 c-4 -3 -7 -19 -7 -35 0 -21 5 -28 20 -28 16 0 20 7 20 35 0 33 -16 46 -33 28z"/>
 <path d="M570 445 c0 -29 3 -36 18 -33 11 2 17 13 17 33 0 20 -6 31 -17 33 -15 3 -18 -4 -18 -33z"/>
 <path d="M630 445 c0 -28 4 -35 20 -35 16 0 20 7 20 35 0 28 -4 35 -20 35 -16 0 -20 -7 -20 -35z"/>
 <path d="M190 336 c0 -85 0 -86 30 -101 29 -15 30 -18 30 -85 l0 -70 45 -22 c29 -14 45 -29 45 -40 0 -11 7 -18 20 -18 11 0 20 7 20 15 0 8 23 26 50 40 l51 26 -3 87 c-2 69 -6 87 -18 87 -12 0 -16 -17 -20 -74 -5 -71 -6 -73 -40 -91 -34 -17 -36 -17 -72 1 l-38 19 0 70 c0 67 -1 70 -30 85 -27 14 -29 19 -32 82 -2 55 -6 68 -20 71 -16 3 -18 -6 -18 -82z"/>
 <path d="M252 348 c2 -21 8 -33 18 -33 10 0 16 12 18 33 3 27 0 32 -18 32 -18 0 -21 -5 -18 -32z"/>
 <path d="M312 348 c2 -22 9 -34 21 -36 14 -3 17 4 17 32 0 30 -4 36 -21 36 -17 0 -20 -5 -17 -32z"/>
 <path d="M380 344 c0 -28 3 -35 18 -32 11 2 18 14 20 36 3 27 0 32 -17 32 -17 0 -21 -6 -21 -36z"/>
 <path d="M317 283 c-4 -3 -7 -19 -7 -35 0 -21 5 -28 20 -28 16 0 20 7 20 35 0 33 -16 46 -33 28z"/>
 <path d="M380 255 c0 -29 3 -36 18 -33 11 2 17 13 17 33 0 20 -6 31 -17 33 -15 3 -18 -4 -18 -33z"/>
 <path d="M630 255 c0 -28 4 -35 20 -35 16 0 20 7 20 35 0 28 -4 35 -20 35 -16 0 -20 -7 -20 -35z"/>
 <path d="M697 283 c-4 -3 -7 -19 -7 -35 0 -21 5 -28 20 -28 16 0 20 7 20 35 0 33 -16 46 -33 28z"/>
 <path d="M312 158 c2 -22 9 -34 21 -36 14 -3 17 4 17 32 0 30 -4 36 -21 36 -17 0 -20 -5 -17 -32z"/>
 <path d="M380 154 c0 -28 3 -35 18 -32 11 2 18 14 20 36 3 27 0 32 -17 32 -17 0 -21 -6 -21 -36z"/>
 </g>

</svg>